<svg width="40.000000" height="40.000000" viewBox="0 0 40 40" fill="none" xmlns="http://www.w3.org/2000/svg" xmlns:xlink="http://www.w3.org/1999/xlink">
	<desc>
			Created with Pixso.
	</desc>
	<defs/>
	<rect id="Rectangle 9" rx="20.000000" width="40.000000" height="40.000000" fill="#2B2B2B" fill-opacity="1.000000"/>
	<path id="Vector" d="M31.33 14.65L29.17 16.81C28.95 17.03 28.6 17.03 28.38 16.81L23.17 11.61C22.95 11.39 22.95 11.03 23.17 10.81L25.33 8.65C26.21 7.78 27.64 7.78 28.52 8.65L31.33 11.47C32.22 12.35 32.22 13.77 31.33 14.65ZM21.32 12.67L9.01 24.98L8.01 30.68C7.88 31.44 8.55 32.11 9.32 31.98L15.01 30.98L27.32 18.67C27.54 18.45 27.54 18.09 27.32 17.87L22.12 12.67C21.89 12.45 21.54 12.45 21.32 12.67ZM13.81 23.92C13.55 23.67 13.55 23.25 13.81 23L21.03 15.78C21.29 15.52 21.7 15.52 21.96 15.78C22.22 16.04 22.22 16.45 21.96 16.71L14.74 23.92C14.48 24.18 14.07 24.18 13.81 23.92ZM12.12 27.87L14.37 27.87L14.37 29.57L11.35 30.1L9.89 28.64L10.42 25.62L12.12 25.62L12.12 27.87Z" fill="#F1F1F1" fill-opacity="1.000000" fill-rule="nonzero"/>
</svg>
