<svg width="40.000000" height="40.000000" viewBox="0 0 40 40" fill="none" xmlns="http://www.w3.org/2000/svg" xmlns:xlink="http://www.w3.org/1999/xlink">
	<desc>
			Created with Pixso.
	</desc>
	<defs/>
	<rect id="Rectangle 10" rx="20.000000" width="40.000000" height="40.000000" fill="#2B2B2B" fill-opacity="1.000000"/>
	<path id="mail" d="M9.5 30C8.81 30 8.22 29.75 7.73 29.26C7.24 28.77 7 28.18 7 27.5L7 12.5C7 11.81 7.24 11.22 7.73 10.73C8.22 10.24 8.81 10 9.5 10L29.5 10C30.18 10 30.77 10.24 31.26 10.73C31.75 11.22 32 11.81 32 12.5L32 27.5C32 28.18 31.75 28.77 31.26 29.26C30.77 29.75 30.18 30 29.5 30L9.5 30ZM19.5 21.25L29.5 15L29.5 12.5L19.5 18.75L9.5 12.5L9.5 15L19.5 21.25Z" fill="#F1F1F1" fill-opacity="1.000000" fill-rule="nonzero"/>
</svg>
