<svg width="40.000000" height="40.000000" viewBox="0 0 40 40" fill="none" xmlns="http://www.w3.org/2000/svg" xmlns:xlink="http://www.w3.org/1999/xlink">
	<desc>
			Created with Pixso.
	</desc>
	<defs/>
	<rect id="Rectangle 7" rx="20.000000" width="40.000000" height="40.000000" fill="#2B2B2B" fill-opacity="1.000000"/>
	<path id="Vector" d="M19.93 32C21.66 32 23.06 30.6 23.06 28.87L16.81 28.87C16.81 30.6 18.21 32 19.93 32ZM30.45 24.68C29.51 23.67 27.74 22.15 27.74 17.15C27.74 13.36 25.08 10.32 21.49 9.58L21.49 8.56C21.49 7.69 20.79 7 19.93 7C19.07 7 18.37 7.69 18.37 8.56L18.37 9.58C14.78 10.32 12.12 13.36 12.12 17.15C12.12 22.15 10.36 23.67 9.42 24.68C9.12 25 8.99 25.38 9 25.75C9 26.55 9.63 27.31 10.56 27.31L29.3 27.31C30.24 27.31 30.87 26.55 30.87 25.75C30.87 25.38 30.74 25 30.45 24.68Z" fill="#F1F1F1" fill-opacity="1.000000" fill-rule="nonzero"/>
</svg>
