<svg width="40.000000" height="40.000000" viewBox="0 0 40 40" fill="none" xmlns="http://www.w3.org/2000/svg" xmlns:xlink="http://www.w3.org/1999/xlink">
	<desc>
			Created with Pixso.
	</desc>
	<defs/>
	<rect id="Rectangle 8" rx="20.000000" width="40.000000" height="40.000000" fill="#2B2B2B" fill-opacity="1.000000"/>
	<path id="..." d="M9.37 22.8Q8.37 22.8 7.77 22.31Q7.69 22.24 7.62 22.17Q7.56 22.12 7.51 22.05Q7 21.44 7 20.4Q7 19.64 7.33 19.08Q7.46 18.86 7.64 18.67Q7.86 18.45 8.12 18.3Q8.66 18 9.37 18C10.12 18 10.71 18.2 11.12 18.62Q11.18 18.67 11.23 18.74L11.23 18.74Q11.75 19.35 11.75 20.4Q11.75 21.11 11.44 21.65Q11.29 21.91 11.08 22.12Q10.88 22.33 10.65 22.47Q10.11 22.8 9.37 22.8ZM19.65 22.8Q18.65 22.8 18.05 22.31Q17.97 22.24 17.9 22.17Q17.84 22.12 17.79 22.05Q17.27 21.44 17.27 20.4Q17.27 19.64 17.61 19.08Q17.74 18.86 17.92 18.67Q18.14 18.45 18.4 18.3L18.4 18.3Q18.94 18 19.65 18C20.4 18 20.99 18.2 21.4 18.62Q21.46 18.67 21.51 18.74Q22.03 19.35 22.03 20.4Q22.03 21.11 21.72 21.65Q21.57 21.91 21.35 22.12Q21.16 22.33 20.92 22.47Q20.39 22.8 19.65 22.8ZM28.18 22.17C28.59 22.59 29.18 22.8 29.93 22.8C30.63 22.8 31.2 22.57 31.63 22.12C32.08 21.68 32.31 21.1 32.31 20.4C32.31 19.63 32.1 19.04 31.68 18.62C31.27 18.2 30.68 18 29.93 18Q29.22 18 28.68 18.3Q28.42 18.45 28.2 18.67Q28.02 18.86 27.89 19.08Q27.55 19.64 27.55 20.4Q27.55 21.44 28.07 22.05Q28.12 22.12 28.18 22.17Z" fill="#FFFFFF" fill-opacity="1.000000" fill-rule="evenodd"/>
</svg>
