<svg width="40.000000" height="40.000000" viewBox="0 0 40 40" fill="none" xmlns="http://www.w3.org/2000/svg" xmlns:xlink="http://www.w3.org/1999/xlink">
	<desc>
			Created with Pixso.
	</desc>
	<defs/>
	<rect id="Rectangle 9" rx="20.000000" width="40.000000" height="40.000000" fill="#2B2B2B" fill-opacity="1.000000"/>
	<path id="Vector" d="M32.65 28.61L27.79 23.74C27.57 23.52 27.27 23.4 26.96 23.4L26.16 23.4C27.51 21.68 28.31 19.51 28.31 17.15C28.31 11.54 23.76 7 18.15 7C12.54 7 8 11.54 8 17.15C8 22.76 12.54 27.31 18.15 27.31C20.51 27.31 22.68 26.51 24.4 25.16L24.4 25.96C24.4 26.27 24.52 26.57 24.74 26.79L29.61 31.65C30.07 32.11 30.81 32.11 31.27 31.65L32.65 30.27C33.11 29.81 33.11 29.07 32.65 28.61ZM18.15 23.4C14.7 23.4 11.9 20.61 11.9 17.15C11.9 13.7 14.69 10.9 18.15 10.9C21.6 10.9 24.4 13.69 24.4 17.15C24.4 20.6 21.61 23.4 18.15 23.4Z" fill="#F1F1F1" fill-opacity="1.000000" fill-rule="nonzero"/>
</svg>
